<?xml version="1.0" standalone="no"?>
<!DOCTYPE svg PUBLIC "-//W3C//DTD SVG 1.1//EN" "http://www.w3.org/Graphics/SVG/1.1/DTD/svg11.dtd" >
<svg xmlns="http://www.w3.org/2000/svg" xmlns:xlink="http://www.w3.org/1999/xlink" version="1.1">
<metadata></metadata>
<defs>
<font id="falloutmedium" horiz-adv-x="896" >
<font-face units-per-em="2048" ascent="1536" descent="-512" />
<missing-glyph horiz-adv-x="640" />
<glyph horiz-adv-x="0" />
<glyph unicode="&#xd;" horiz-adv-x="682" />
<glyph unicode=" "  horiz-adv-x="640" />
<glyph unicode="&#x09;" horiz-adv-x="640" />
<glyph unicode="&#xa0;" horiz-adv-x="640" />
<glyph unicode="!" horiz-adv-x="384" d="M0 0v128h128h128v-128h-128h-128zM0 256v128v128v128v128v128h128h128v-128v-128v-128v-128v-128h-128h-128z" />
<glyph unicode="&#x22;" horiz-adv-x="768" d="M0 768v128v128h128h128v-128v-128h-128h-128zM384 768v128v128h128h128v-128v-128h-128h-128z" />
<glyph unicode="#" horiz-adv-x="1024" d="M0 256v128h128v128h-128v128h128v128v128h128h128v-128v-128h128v128v128h128h128v-128v-128h128v-128h-128v-128h128v-128h-128v-128v-128h-128h-128v128v128h-128v-128v-128h-128h-128v128v128h-128zM384 384h128v128h-128v-128z" />
<glyph unicode="$" d="M0 128v128h128h128h128h128v128h-128h-128h-128v128h-128v128h128v128h128v128h128h128v-128h128h128v-128h-128h-128h-128h-128v-128h128h128h128v-128h128v-128h-128v-128h-128v-128h-128h-128v128h-128h-128z" />
<glyph unicode="%" horiz-adv-x="1152" d="M0 0v128h128v128h128v128h128v128h128v128h128v128h128v128h128h128v-128h-128v-128h-128v-128h-128v-128h-128v-128h-128v-128h-128v-128h-128h-128zM0 640v128v128h128h128v-128v-128h-128h-128zM768 0v128v128h128h128v-128v-128h-128h-128z" />
<glyph unicode="&#x26;" horiz-adv-x="1024" d="M0 128v128v128h128v128h128v128h-128v128h128v128h128h128h128v-128h128v-128h-128v-128h-128v-128h128v128h128h128v-128h-128v-128v-128h128v-128h-128h-128v128h-128v128h-128v128h-128v-128v-128h128h128v-128h-128h-128h-128v128h-128zM384 640h128v128h-128v-128z " />
<glyph unicode="'" horiz-adv-x="384" d="M0 768v128v128h128h128v-128v-128h-128h-128z" />
<glyph unicode="(" horiz-adv-x="640" d="M0 256v128v128v128h128v128h128v128h128h128v-128h-128v-128h-128v-128v-128v-128h128v-128h128v-128h-128h-128v128h-128v128h-128z" />
<glyph unicode=")" horiz-adv-x="640" d="M0 0v128h128v128h128v128v128v128h-128v128h-128v128h128h128v-128h128v-128h128v-128v-128v-128h-128v-128h-128v-128h-128h-128z" />
<glyph unicode="*" horiz-adv-x="1024" d="M0 384v128h128h128v128h-128v128h128h128v-128h128v128h128h128v-128h-128v-128h128h128v-128h-128h-128v-128h128v-128h-128h-128v128h-128v-128h-128h-128v128h128v128h-128h-128z" />
<glyph unicode="+" d="M0 384v128h128h128v128v128h128h128v-128v-128h128h128v-128h-128h-128v-128v-128h-128h-128v128v128h-128h-128z" />
<glyph unicode="," horiz-adv-x="512" d="M0 0h128v128v128h128h128v-128v-128h-128v-128h-128h-128v128z" />
<glyph unicode="-" d="M0 384v128h128h128h128h128h128h128v-128h-128h-128h-128h-128h-128h-128z" />
<glyph unicode="." horiz-adv-x="384" d="M0 0v128v128h128h128v-128v-128h-128h-128z" />
<glyph unicode="/" horiz-adv-x="1024" d="M0 0v128v128h128v128h128v128h128v128h128v128h128v128h128h128v-128h-128v-128h-128v-128h-128v-128h-128v-128h-128v-128h-128v-128h-128z" />
<glyph unicode="0" d="M0 128v128v128v128v128v128h128v128h128h128h128h128v-128h128v-128v-128v-128v-128v-128h-128v-128h-128h-128h-128h-128v128h-128zM256 128h128h128v128v128h-128v-128h-128v-128zM256 512h128v128h128v128h-128h-128v-128v-128z" />
<glyph unicode="1" horiz-adv-x="640" d="M0 512v128h128v128h128v128h128h128v-128v-128v-128v-128v-128v-128v-128h-128h-128v128v128v128v128h-128h-128z" />
<glyph unicode="2" d="M0 0v128v128h128v128h128v128h128h128v128v128h-128h-128v-128h-128h-128v128h128v128h128h128h128h128v-128h128v-128v-128h-128v-128h-128h-128v-128h-128v-128h128h128h128h128v-128h-128h-128h-128h-128h-128h-128z" />
<glyph unicode="3" d="M0 128v128h128h128v-128h128h128v128v128h-128h-128v128h128h128v128v128h-128h-128v-128h-128h-128v128h128v128h128h128h128h128v-128h128v-128v-128h-128v-128h128v-128v-128h-128v-128h-128h-128h-128h-128v128h-128z" />
<glyph unicode="4" d="M0 256v128v128h128v128h128v128h128v128h128h128h128v-128v-128v-128v-128v-128v-128v-128h-128h-128v128v128h-128h-128h-128h-128zM256 384h128h128v128v128h-128v-128h-128v-128z" />
<glyph unicode="5" d="M0 128v128h128h128v-128h128h128v128v128v128h-128h-128h-128h-128v128v128v128h128h128h128h128h128h128v-128h-128h-128h-128h-128v-128h128h128h128v-128h128v-128v-128v-128h-128v-128h-128h-128h-128h-128v128h-128z" />
<glyph unicode="6" d="M0 128v128v128v128v128h128v128h128v128h128h128h128v-128h-128h-128v-128h-128v-128h128h128h128v-128h128v-128v-128h-128v-128h-128h-128h-128h-128v128h-128zM256 128h128h128v128v128h-128h-128v-128v-128z" />
<glyph unicode="7" d="M0 640v128v128h128h128h128h128h128h128v-128v-128v-128h-128v-128h-128v-128v-128v-128h-128h-128v128v128v128h128v128h128v128v128h-128h-128v-128h-128h-128z" />
<glyph unicode="8" d="M0 128v128v128h128v128h-128v128v128h128v128h128h128h128h128v-128h128v-128v-128h-128v-128h128v-128v-128h-128v-128h-128h-128h-128h-128v128h-128zM256 128h128h128v128v128h-128h-128v-128v-128zM256 512h128h128v128v128h-128h-128v-128v-128z" />
<glyph unicode="9" d="M0 512v128v128h128v128h128h128h128h128v-128h128v-128v-128v-128v-128h-128v-128h-128v-128h-128h-128h-128v128h128h128v128h128v128h-128h-128h-128v128h-128zM256 512h128h128v128v128h-128h-128v-128v-128z" />
<glyph unicode=":" horiz-adv-x="384" d="M0 0v128v128h128h128v-128v-128h-128h-128zM0 512v128v128h128h128v-128v-128h-128h-128z" />
<glyph unicode=";" horiz-adv-x="512" d="M0 0h128v128v128h128h128v-128v-128h-128v-128h-128h-128v128zM128 512v128v128h128h128v-128v-128h-128h-128z" />
<glyph unicode="&#x3c;" horiz-adv-x="768" d="M0 384v128h128v128h128v128h128v128h128h128v-128h-128v-128h-128v-128h-128v-128h128v-128h128v-128h128v-128h-128h-128v128h-128v128h-128v128h-128z" />
<glyph unicode="=" d="M0 128v128h128h128h128h128h128h128v-128h-128h-128h-128h-128h-128h-128zM0 512v128h128h128h128h128h128h128v-128h-128h-128h-128h-128h-128h-128z" />
<glyph unicode="&#x3e;" horiz-adv-x="768" d="M0 0v128h128v128h128v128h128v128h-128v128h-128v128h-128v128h128h128v-128h128v-128h128v-128h128v-128h-128v-128h-128v-128h-128v-128h-128h-128z" />
<glyph unicode="?" d="M0 640v128h128v128h128h128h128h128v-128h128v-128v-128h-128v-128h-128v-128h-128h-128v128h128v128h128v128v128h-128h-128v-128h-128h-128zM256 0v128h128h128v-128h-128h-128z" />
<glyph unicode="@" horiz-adv-x="1024" d="M0 128v128v128v128v128v128h128v128h128h128h128h128h128v-128h128v-128v-128v-128v-128h-128h-128h-128h-128v128v128v128h128h128v128h-128h-128h-128v-128v-128v-128v-128v-128h128h128h128v-128h-128h-128h-128h-128v128h-128z" />
<glyph unicode="A" horiz-adv-x="1152" d="M0 0v128h128v128h128v128h128v128h128v128h128v128h128v128h128h128v-128v-128v-128v-128v-128v-128v-128h-128h-128v128v128h-128h-128h-128v-128h-128v-128h-128h-128zM640 384h128v128h-128v-128z" />
<glyph unicode="B" horiz-adv-x="1024" d="M0 0v128v128v128v128v128v128v128h128h128h128h128h128h128v-128h128v-128v-128h-128v-128h128v-128v-128h-128v-128h-128h-128h-128h-128h-128h-128zM256 128h128h128h128v128v128h-128h-128h-128v-128v-128zM256 512h128h128h128v128v128h-128h-128h-128v-128v-128z " />
<glyph unicode="C" d="M0 128v128v128v128v128v128h128v128h128h128h128h128h128v-128h-128h-128h-128h-128v-128v-128v-128v-128v-128h128h128h128h128v-128h-128h-128h-128h-128h-128v128h-128z" />
<glyph unicode="D" horiz-adv-x="1024" d="M0 0v128v128v128v128v128v128v128h128h128h128h128h128h128v-128h128v-128v-128v-128v-128v-128h-128v-128h-128h-128h-128h-128h-128h-128zM256 128h128h128h128v128v128v128v128v128h-128h-128h-128v-128v-128v-128v-128v-128z" />
<glyph unicode="E" d="M0 0v128v128v128v128v128v128v128h128h128h128h128h128h128v-128h-128h-128h-128h-128v-128v-128h128h128h128h128v-128h-128h-128h-128h-128v-128v-128h128h128h128h128v-128h-128h-128h-128h-128h-128h-128z" />
<glyph unicode="F" d="M0 0v128v128v128v128v128v128v128h128h128h128h128h128h128v-128h-128h-128h-128h-128v-128v-128h128h128h128h128v-128h-128h-128h-128h-128v-128v-128v-128h-128h-128z" />
<glyph unicode="G" horiz-adv-x="1024" d="M0 128v128v128v128v128v128h128v128h128h128h128h128h128h128v-128h-128h-128h-128h-128h-128v-128v-128v-128v-128v-128h128h128h128v128v128h-128v128h128h128h128v-128v-128v-128h-128v-128h-128h-128h-128h-128h-128v128h-128z" />
<glyph unicode="H" horiz-adv-x="1024" d="M0 0v128v128v128v128v128v128v128h128h128v-128v-128v-128h128h128h128v128v128v128h128h128v-128v-128v-128v-128v-128v-128v-128h-128h-128v128v128v128h-128h-128h-128v-128v-128v-128h-128h-128z" />
<glyph unicode="I" horiz-adv-x="384" d="M0 0v128v128v128v128v128v128v128h128h128v-128v-128v-128v-128v-128v-128v-128h-128h-128z" />
<glyph unicode="J" horiz-adv-x="1024" d="M0 128v128v128h128h128v-128v-128h128h128h128v128v128v128v128v128v128h128h128v-128v-128v-128v-128v-128v-128h-128v-128h-128h-128h-128h-128h-128v128h-128z" />
<glyph unicode="K" horiz-adv-x="1024" d="M0 0v128v128v128v128v128v128v128h128h128v-128v-128v-128h128v128h128v128h128v128h128h128v-128h-128v-128h-128v-128h-128v-128h128v-128h128v-128h128v-128h-128h-128v128h-128v128h-128v128h-128v-128v-128v-128h-128h-128z" />
<glyph unicode="L" d="M0 0v128v128v128v128v128v128v128h128h128v-128v-128v-128v-128v-128v-128h128h128h128h128v-128h-128h-128h-128h-128h-128h-128z" />
<glyph unicode="M" horiz-adv-x="1024" d="M0 0v128v128v128v128v128v128v128h128h128h128h128h128h128v-128h128v-128v-128v-128v-128v-128v-128h-128h-128v128v128v128v128v128v128h-128v-128v-128v-128v-128v-128v-128h-128v128v128v128v128v128v128h-128v-128v-128v-128v-128v-128v-128h-128h-128z" />
<glyph unicode="N" horiz-adv-x="1024" d="M0 0v128v128v128v128v128v128v128h128h128v-128h128v-128h128v-128h128v128v128v128h128h128v-128v-128v-128v-128v-128v-128v-128h-128h-128v128v128h-128v128h-128v128h-128v-128v-128v-128v-128h-128h-128z" />
<glyph unicode="O" horiz-adv-x="1024" d="M0 128v128v128v128v128v128h128v128h128h128h128h128h128v-128h128v-128v-128v-128v-128v-128h-128v-128h-128h-128h-128h-128h-128v128h-128zM256 128h128h128h128v128v128v128v128v128h-128h-128h-128v-128v-128v-128v-128v-128z" />
<glyph unicode="P" horiz-adv-x="1024" d="M0 0v128v128v128v128v128v128v128h128h128h128h128h128h128v-128h128v-128v-128h-128v-128h-128h-128h-128h-128v-128v-128v-128h-128h-128zM256 512h128h128h128v128v128h-128h-128h-128v-128v-128z" />
<glyph unicode="Q" horiz-adv-x="1024" d="M0 128v128v128v128v128v128h128v128h128h128h128h128h128v-128h128v-128v-128v-128v-128v-128h-128v-128h128v-128h-128h-128h-128v128h-128h-128h-128v128h-128zM256 128h128v128h128v-128h128v128v128v128v128v128h-128h-128h-128v-128v-128v-128v-128v-128z" />
<glyph unicode="R" horiz-adv-x="1024" d="M0 0v128v128v128v128v128v128v128h128h128h128h128h128h128v-128h128v-128v-128h-128v-128h128v-128v-128v-128h-128h-128v128v128v128h-128h-128h-128v-128v-128v-128h-128h-128zM256 512h128h128h128v128v128h-128h-128h-128v-128v-128z" />
<glyph unicode="S" horiz-adv-x="1024" d="M0 0v128h128h128h128h128h128v128v128h-128h-128h-128h-128v128h-128v128v128h128v128h128h128h128h128h128h128v-128h-128h-128h-128h-128h-128v-128v-128h128h128h128h128v-128h128v-128v-128h-128v-128h-128h-128h-128h-128h-128h-128z" />
<glyph unicode="T" d="M0 768v128h128h128h128h128h128h128v-128h-128h-128v-128v-128v-128v-128v-128v-128h-128h-128v128v128v128v128v128v128h-128h-128z" />
<glyph unicode="U" horiz-adv-x="1024" d="M0 128v128v128v128v128v128v128h128h128v-128v-128v-128v-128v-128v-128h128h128h128v128v128v128v128v128v128h128h128v-128v-128v-128v-128v-128v-128v-128h-128h-128h-128h-128h-128h-128v128h-128z" />
<glyph unicode="V" horiz-adv-x="1152" d="M0 640v128v128h128h128v-128v-128h128v-128v-128h128h128v128v128h128v128v128h128h128v-128v-128h-128v-128v-128h-128v-128v-128h-128v-128h-128h-128v128h-128v128v128h-128v128v128h-128z" />
<glyph unicode="W" horiz-adv-x="1024" d="M0 0v128v128v128v128v128v128v128h128h128v-128v-128v-128v-128v-128v-128h128v128v128v128v128v128v128h128v-128v-128v-128v-128v-128v-128h128v128v128v128v128v128v128h128h128v-128v-128v-128v-128v-128v-128h-128v-128h-128h-128h-128h-128h-128h-128z" />
<glyph unicode="X" horiz-adv-x="1152" d="M0 0v128v128h128v128h128v128h-128v128h-128v128v128h128h128v-128v-128h128v-128h128h128v128h128v128v128h128h128v-128v-128h-128v-128h-128v-128h128v-128h128v-128v-128h-128h-128v128v128h-128v128h-128h-128v-128h-128v-128v-128h-128h-128z" />
<glyph unicode="Y" horiz-adv-x="1152" d="M0 768v128h128h128v-128h128v-128h128h128v128h128v128h128h128v-128h-128v-128h-128v-128h-128v-128v-128v-128v-128h-128h-128v128v128v128v128h-128v128h-128v128h-128z" />
<glyph unicode="Z" horiz-adv-x="1024" d="M0 0v128v128h128v128h128v128h128h128v128h128v128h-128h-128h-128h-128h-128v128h128h128h128h128h128h128h128v-128v-128h-128v-128h-128v-128h-128h-128v-128h-128v-128h128h128h128h128h128v-128h-128h-128h-128h-128h-128h-128h-128z" />
<glyph unicode="[" horiz-adv-x="640" d="M0 0v128v128v128v128v128v128v128h128h128h128h128v-128h-128h-128v-128v-128v-128v-128v-128h128h128v-128h-128h-128h-128h-128z" />
<glyph unicode="\" horiz-adv-x="1024" d="M0 640v128v128h128v-128h128v-128h128v-128h128v-128h128v-128h128v-128h128v-128h-128h-128v128h-128v128h-128v128h-128v128h-128v128h-128z" />
<glyph unicode="]" horiz-adv-x="640" d="M0 0v128h128h128v128v128v128v128v128h-128h-128v128h128h128h128h128v-128v-128v-128v-128v-128v-128v-128h-128h-128h-128h-128z" />
<glyph unicode="^" horiz-adv-x="1024" d="M0 384v128h128v128h128v128h128v128h128v-128h128v-128h128v-128h128v-128h-128h-128v128h-128v128h-128v-128h-128v-128h-128h-128z" />
<glyph unicode="_" d="M0 0v128h128h128h128h128h128h128v-128h-128h-128h-128h-128h-128h-128z" />
<glyph unicode="`" horiz-adv-x="512" d="M0 640v128v128h128h128v-128v-128h128v-128h-128h-128v128h-128z" />
<glyph unicode="a" d="M0 128v128v128v128h128v128h128h128h128h128h128v-128v-128v-128v-128v-128h-128h-128h-128h-128h-128v128h-128zM256 128h128h128v128v128v128h-128h-128v-128v-128v-128z" />
<glyph unicode="b" d="M0 0v128v128v128v128v128v128v128h128h128v-128v-128h128h128h128v-128h128v-128v-128v-128h-128v-128h-128h-128h-128h-128h-128zM256 128h128h128v128v128v128h-128h-128v-128v-128v-128z" />
<glyph unicode="c" horiz-adv-x="768" d="M0 128v128v128v128h128v128h128h128h128h128v-128h-128h-128h-128v-128v-128v-128h128h128h128v-128h-128h-128h-128h-128v128h-128z" />
<glyph unicode="d" d="M0 128v128v128v128h128v128h128h128h128v128v128h128h128v-128v-128v-128v-128v-128v-128v-128h-128h-128h-128h-128h-128v128h-128zM256 128h128h128v128v128v128h-128h-128v-128v-128v-128z" />
<glyph unicode="e" d="M0 128v128v128v128h128v128h128h128h128h128v-128h128v-128v-128h-128h-128h-128h-128v-128h128h128h128v-128h-128h-128h-128h-128v128h-128zM256 384h128h128v128h-128h-128v-128z" />
<glyph unicode="f" horiz-adv-x="768" d="M0 512v128h128v128h128v128h128h128h128v-128h-128h-128v-128h128h128v-128h-128h-128v-128v-128v-128v-128h-128h-128v128v128v128v128h-128z" />
<glyph unicode="g" d="M0 128v128v128v128h128v128h128h128h128h128h128v-128v-128v-128v-128v-128v-128h-128v-128h-128h-128h-128h-128v128h128h128h128v128h-128h-128h-128v128h-128zM256 128h128h128v128v128v128h-128h-128v-128v-128v-128z" />
<glyph unicode="h" d="M0 0v128v128v128v128v128v128v128h128h128v-128v-128h128h128h128v-128h128v-128v-128v-128v-128h-128h-128v128v128v128v128h-128h-128v-128v-128v-128v-128h-128h-128z" />
<glyph unicode="i" horiz-adv-x="384" d="M0 0v128v128v128v128v128h128h128v-128v-128v-128v-128v-128h-128h-128z" />
<glyph unicode="j" horiz-adv-x="768" d="M0 0h128h128v-128h128v128v128v128v128v128v128h128h128v-128v-128v-128v-128v-128v-128h-128v-128h-128h-128h-128v128h-128v128z" />
<glyph unicode="k" d="M0 0v128v128v128v128v128v128v128h128h128v-128v-128v-128v-128h128v128h128v128h128h128v-128h-128v-128h-128v-128h128v-128h128v-128h-128h-128v128h-128v128h-128v-128v-128h-128h-128z" />
<glyph unicode="l" horiz-adv-x="384" d="M0 0v128v128v128v128v128v128v128h128h128v-128v-128v-128v-128v-128v-128v-128h-128h-128z" />
<glyph unicode="m" horiz-adv-x="1024" d="M0 0v128v128v128v128v128h128h128h128h128h128h128v-128h128v-128v-128v-128v-128h-128h-128v128v128v128v128h-128v-128v-128v-128v-128h-128v128v128v128v128h-128v-128v-128v-128v-128h-128h-128z" />
<glyph unicode="n" d="M0 0v128v128v128v128v128h128h128h128h128h128v-128h128v-128v-128v-128v-128h-128h-128v128v128v128v128h-128h-128v-128v-128v-128v-128h-128h-128z" />
<glyph unicode="o" d="M0 128v128v128v128h128v128h128h128h128h128v-128h128v-128v-128v-128h-128v-128h-128h-128h-128h-128v128h-128zM256 128h128h128v128v128v128h-128h-128v-128v-128v-128z" />
<glyph unicode="p" d="M0 0v128v128v128v128v128h128h128h128h128h128v-128h128v-128v-128v-128h-128v-128h-128h-128h-128v-128v-128h-128h-128v128v128zM256 128h128h128v128v128v128h-128h-128v-128v-128v-128z" />
<glyph unicode="q" d="M0 128v128v128v128h128v128h128h128h128h128h128v-128v-128v-128v-128v-128v-128v-128h-128h-128v128v128h-128h-128h-128v128h-128zM256 128h128h128v128v128v128h-128h-128v-128v-128v-128z" />
<glyph unicode="r" horiz-adv-x="768" d="M0 0v128v128v128v128v128h128h128v-128h128v128h128h128v-128h-128v-128h-128h-128v-128v-128v-128h-128h-128z" />
<glyph unicode="s" d="M0 384v128h128v128h128h128h128h128v-128h-128h-128h-128v-128h128h128h128v-128h128v-128h-128v-128h-128h-128h-128h-128v128h128h128h128v128h-128h-128h-128v128h-128z" />
<glyph unicode="t" d="M0 512v128h128h128v128v128h128h128v-128v-128h128h128v-128h-128h-128v-128v-128v-128v-128h-128h-128v128v128v128v128h-128h-128z" />
<glyph unicode="u" d="M0 128v128v128v128v128h128h128v-128v-128v-128v-128h128h128v128v128v128v128h128h128v-128v-128v-128v-128v-128h-128h-128h-128h-128h-128v128h-128z" />
<glyph unicode="v" horiz-adv-x="1024" d="M0 384v128v128h128h128v-128v-128h128v-128v-128h128v128v128h128v128v128h128h128v-128v-128h-128v-128v-128h-128v-128h-128h-128h-128v128h-128v128v128h-128z" />
<glyph unicode="w" horiz-adv-x="1024" d="M0 0v128v128v128v128v128h128h128v-128v-128v-128v-128h128v128v128v128v128h128v-128v-128v-128v-128h128v128v128v128v128h128h128v-128v-128v-128v-128h-128v-128h-128h-128h-128h-128h-128h-128z" />
<glyph unicode="x" d="M0 0v128h128v128h128v128h-128v128h-128v128h128h128v-128h128h128v128h128h128v-128h-128v-128h-128v-128h128v-128h128v-128h-128h-128v128h-128h-128v-128h-128h-128z" />
<glyph unicode="y" d="M0 128v128v128v128v128h128h128v-128v-128v-128v-128h128h128v128v128v128v128h128h128v-128v-128v-128v-128v-128v-128h-128v-128h-128h-128h-128h-128v128h128h128h128v128h-128h-128h-128v128h-128z" />
<glyph unicode="z" d="M0 0v128h128v128h128v128h128v128h-128h-128h-128v128h128h128h128h128h128h128v-128h-128v-128h-128v-128h-128v-128h128h128h128v-128h-128h-128h-128h-128h-128h-128z" />
<glyph unicode="{" horiz-adv-x="768" d="M0 384v128h128v128v128h128v128h128h128h128v-128h-128h-128v-128v-128h-128v-128h128v-128v-128h128h128v-128h-128h-128h-128v128h-128v128v128h-128z" />
<glyph unicode="|" horiz-adv-x="384" d="M0 0v128v128v128v128v128v128v128v128h128h128v-128v-128v-128v-128v-128v-128v-128v-128v-128h-128h-128v128z" />
<glyph unicode="}" horiz-adv-x="768" d="M0 0v128h128h128v128v128h128v128h-128v128v128h-128h-128v128h128h128h128v-128h128v-128v-128h128v-128h-128v-128v-128h-128v-128h-128h-128h-128z" />
<glyph unicode="~" d="M0 256v128v128h128v128h128h128v-128h128h128v128h128v-128v-128h-128v-128h-128h-128v128h-128h-128v-128h-128z" />
<glyph unicode="&#xa1;" horiz-adv-x="384" d="M0 0v128v128v128v128v128h128h128v-128v-128v-128v-128v-128h-128h-128zM0 768v128h128h128v-128h-128h-128z" />
<glyph unicode="&#xa2;" d="M0 256v128v128v128h128v128h128h128v128h128v-128h128h128v-128h-128h-128h-128h-128v-128v-128v-128h128h128h128h128v-128h-128h-128v-128h-128v128h-128h-128v128h-128z" />
<glyph unicode="&#xa3;" d="M0 0v128h128v128v128h-128v128h128v128v128h128v128h128h128h128v-128h128v-128h-128h-128v128h-128v-128v-128h128v-128h-128v-128h128v-128h128h128v-128h-128h-128h-128v128h-128v-128h-128h-128z" />
<glyph unicode="&#xa4;" d="M0 128v128h128v128h-128v128h128v128h-128v128h128h128v-128h128h128v128h128h128v-128h-128v-128h128v-128h-128v-128h128v-128h-128h-128v128h-128h-128v-128h-128h-128zM256 384h128h128v128h-128h-128v-128z" />
<glyph unicode="&#xa5;" horiz-adv-x="1152" d="M0 768v128h128h128v-128h128v-128h128h128v128h128v128h128h128v-128h-128v-128h-128v-128h128v-128h-128h-128v-128h128h128v-128h-128h-128v-128h-128h-128v128h-128h-128v128h128h128v128h-128h-128v128h128v128h-128v128h-128z" />
<glyph unicode="&#xa6;" horiz-adv-x="256" d="M0 0v128v128v128h128v-128v-128v-128v-128h-128v128zM0 512v128v128v128v128h128v-128v-128v-128v-128h-128z" />
<glyph unicode="&#xa7;" horiz-adv-x="1024" d="M0 512v128v128h128v128h128h128h128h128h128v-128h-128h-128h-128h-128v-128h128h128h128v-128h128v-128h128v-128v-128h-128v-128h-128h-128h-128h-128h-128v128h128h128h128h128v128h-128h-128h-128v128h-128v128h-128zM384 384h128v128h-128v-128z" />
<glyph unicode="&#xa8;" horiz-adv-x="768" d="M0 640v128v128h128h128v-128v-128h-128h-128zM384 640v128v128h128h128v-128v-128h-128h-128z" />
<glyph unicode="&#xa9;" horiz-adv-x="1280" d="M0 128v128v128v128v128v128h128v128h128h128h128h128h128h128h128v-128h128v-128v-128v-128v-128v-128h-128v-128h-128h-128h-128h-128h-128h-128h-128v128h-128zM256 128h128h128h128h128h128v128v128v128v128v128h-128h-128h-128h-128h-128v-128v-128v-128v-128v-128z M384 256v128v128v128h128h128h128v-128h-128h-128v-128h128h128v-128h-128h-128h-128z" />
<glyph unicode="&#xaa;" horiz-adv-x="512" d="M0 384v128v128h128h128v128h-128h-128v128h128h128h128v-128v-128v-128v-128h-128h-128h-128z" />
<glyph unicode="&#xab;" horiz-adv-x="1152" d="M0 384v128h128v128h128v128h128h128v-128h-128v-128h-128v-128h128v-128h128v-128h-128h-128v128h-128v128h-128zM512 384v128h128v128h128v128h128h128v-128h-128v-128h-128v-128h128v-128h128v-128h-128h-128v128h-128v128h-128z" />
<glyph unicode="&#xac;" d="M0 768v128h128h128h128h128h128h128v-128v-128v-128h-128h-128v128v128h-128h-128h-128h-128z" />
<glyph unicode="&#xad;" d="M0 384v128h128h128h128h128h128h128v-128h-128h-128h-128h-128h-128h-128z" />
<glyph unicode="&#xae;" horiz-adv-x="1280" d="M0 128v128v128v128v128v128h128v128h128h128h128h128h128h128h128v-128h128v-128v-128v-128v-128v-128h-128v-128h-128h-128h-128h-128h-128h-128h-128v128h-128zM256 128h128h128h128h128h128v128v128v128v128v128h-128h-128h-128h-128h-128v-128v-128v-128v-128v-128z M384 256v128v128v128h128h128h128v-128h-128v-128h-128v-128h-128zM640 256v128h128v-128h-128z" />
<glyph unicode="&#xaf;" d="M0 768v128h128h128h128h128h128h128v-128h-128h-128h-128h-128h-128h-128z" />
<glyph unicode="&#xb0;" horiz-adv-x="512" d="M0 512v128v128v128h128h128h128v-128v-128v-128h-128h-128h-128zM128 640h128v128h-128v-128z" />
<glyph unicode="&#xb1;" d="M0 0v128h128h128h128h128h128h128v-128h-128h-128h-128h-128h-128h-128zM0 512v128h128h128v128v128h128h128v-128v-128h128h128v-128h-128h-128v-128v-128h-128h-128v128v128h-128h-128z" />
<glyph unicode="&#xb2;" horiz-adv-x="512" d="M0 384v128h128v128h128v-128h128v-128h-128h-128h-128zM0 768v128h128h128v-128h-128h-128zM256 640v128h128v-128h-128z" />
<glyph unicode="&#xb3;" horiz-adv-x="512" d="M0 384v128h128h128v128h-128v128h-128v128h128h128h128v-128v-128v-128v-128h-128h-128h-128z" />
<glyph unicode="&#xb4;" horiz-adv-x="384" d="M0 768v128v128h128h128v-128v-128h-128h-128z" />
<glyph unicode="&#xb5;" d="M0 0v128v128v128v128v128h128h128v-128v-128v-128v-128h128h128v128v128v128v128h128h128v-128v-128v-128v-128v-128h-128h-128h-128h-128v-128v-128h-128h-128v128v128z" />
<glyph unicode="&#xb6;" horiz-adv-x="1024" d="M0 512v128v128h128v128h128h128h128h128h128h128v-128v-128v-128v-128v-128v-128v-128h-128h-128v128v128v128h-128v-128v-128v-128h-128h-128v128v128v128h-128v128h-128zM512 512h128v128v128h-128v-128v-128z" />
<glyph unicode="&#xb7;" horiz-adv-x="512" d="M0 256v128v128v128h128h128h128v-128v-128v-128h-128h-128h-128z" />
<glyph unicode="&#xb8;" horiz-adv-x="512" d="M0 -256h128v128v128h128v-128h128v-128h-128v-128h-128h-128v128z" />
<glyph unicode="&#xb9;" horiz-adv-x="512" d="M0 384v128h128v128h-128v128h128v128h128v-128v-128v-128h128v-128h-128h-128h-128z" />
<glyph unicode="&#xba;" horiz-adv-x="512" d="M0 384v128v128v128v128h128h128h128v-128v-128v-128v-128h-128h-128h-128zM128 512h128v128v128h-128v-128v-128z" />
<glyph unicode="&#xbb;" horiz-adv-x="1152" d="M0 128v128h128v128h128v128h-128v128h-128v128h128h128v-128h128v-128h128v-128h-128v-128h-128v-128h-128h-128zM512 128v128h128v128h128v128h-128v128h-128v128h128h128v-128h128v-128h128v-128h-128v-128h-128v-128h-128h-128z" />
<glyph unicode="&#xbc;" horiz-adv-x="1408" d="M0 384v128h128v128h-128v128h128v128h128v-128v-128v-128h128v-128h-128h-128h-128zM256 0v128v128h128v128h128v128h128v128h128v128h128v128h128h128v-128h-128v-128h-128v-128h-128v-128h-128v-128h-128v-128h-128v-128h-128zM896 128v128v128h128v128h128v-128v-128 h128v-128h-128v-128h-128v128h-128z" />
<glyph unicode="&#xbd;" horiz-adv-x="1408" d="M0 384v128h128v128h-128v128h128v128h128v-128v-128v-128h128v-128h-128h-128h-128zM256 0v128v128h128v128h128v128h128v128h128v128h128v128h128h128v-128h-128v-128h-128v-128h128h128v-128h128v-128h-128v-128h128v-128h-128h-128h-128v128h128v128h128v128h-128 h-128v128h-128v-128h-128v-128h-128v-128h-128v-128h-128z" />
<glyph unicode="&#xbe;" horiz-adv-x="1408" d="M0 384v128h128h128v128h-128v128h-128v128h128h128h128v-128v-128v-128v-128h-128h-128h-128zM256 0v128v128h128v128h128v128h128v128h128v128h128v128h128h128v-128h-128v-128h-128v-128h-128v-128h-128v-128h-128v-128h-128v-128h-128zM896 128v128v128h128v128h128 v-128v-128h128v-128h-128v-128h-128v128h-128z" />
<glyph unicode="&#xbf;" d="M0 128v128v128h128v128h128v128h128h128v-128h-128v-128h-128v-128v-128h128h128v128h128h128v-128h-128v-128h-128h-128h-128h-128v128h-128zM256 768v128h128h128v-128h-128h-128z" />
<glyph unicode="&#xc0;" horiz-adv-x="1152" d="M0 0v128h128v128h128v128h128v128h128v128h128v128h128v128h128h128v-128v-128v-128v-128v-128v-128v-128h-128h-128v128v128h-128h-128h-128v-128h-128v-128h-128h-128zM640 384h128v128h-128v-128zM640 1152v128h128h128v-128h128v-128h-128h-128v128h-128z" />
<glyph unicode="&#xc1;" horiz-adv-x="1152" d="M0 0v128h128v128h128v128h128v128h128v128h128v128h128v128h128h128v-128v-128v-128v-128v-128v-128v-128h-128h-128v128v128h-128h-128h-128v-128h-128v-128h-128h-128zM640 384h128v128h-128v-128zM640 1024v128h128v128h128h128v-128h-128v-128h-128h-128z" />
<glyph unicode="&#xc2;" horiz-adv-x="1152" d="M0 0v128h128v128h128v128h128v128h128v128h128v128h128v128h128h128v-128v-128v-128v-128v-128v-128v-128h-128h-128v128v128h-128h-128h-128v-128h-128v-128h-128h-128zM384 1024v128h128v128h128v128h128v-128h128v-128h128v-128h-128h-128v128h-128v-128h-128h-128z M640 384h128v128h-128v-128z" />
<glyph unicode="&#xc3;" horiz-adv-x="1152" d="M0 0v128h128v128h128v128h128v128h128v128h128v128h128v128h128h128v-128v-128v-128v-128v-128v-128v-128h-128h-128v128v128h-128h-128h-128v-128h-128v-128h-128h-128zM384 1024v128v128h128v128h128h128v-128h128v128h128v-128v-128h-128v-128h-128h-128v128h-128 v-128h-128zM640 384h128v128h-128v-128z" />
<glyph unicode="&#xc4;" horiz-adv-x="1152" d="M0 0v128h128v128h128v128h128v128h128v128h128v128h128v128h128h128v-128v-128v-128v-128v-128v-128v-128h-128h-128v128v128h-128h-128h-128v-128h-128v-128h-128h-128zM384 1024v128v128h128h128v-128v-128h-128h-128zM640 384h128v128h-128v-128zM768 1024v128v128 h128h128v-128v-128h-128h-128z" />
<glyph unicode="&#xc5;" horiz-adv-x="1280" d="M0 0v128h128v128h128v128h128v128h128v128h128v128v128h-128v128v128h128v128h128h128h128v-128h128v-128v-128h-128v-128v-128v-128v-128v-128v-128v-128h-128h-128v128v128h-128h-128h-128v-128h-128v-128h-128h-128zM640 384h128v128h-128v-128zM768 896h128v128v128 h-128v-128v-128z" />
<glyph unicode="&#xc6;" horiz-adv-x="1664" d="M0 0v128h128v128h128v128h128v128h128v128h128v128h128v128h128h128h128h128h128h128v-128h-128h-128h-128h-128v-128v-128h128h128h128h128v-128h-128h-128h-128h-128v-128v-128h128h128h128h128v-128h-128h-128h-128h-128h-128h-128v128v128h-128h-128h-128v-128h-128 v-128h-128h-128zM640 384h128v128h-128v-128z" />
<glyph unicode="&#xc7;" d="M0 128v128v128v128v128v128h128v128h128h128h128h128h128v-128h-128h-128h-128h-128v-128v-128v-128v-128v-128h128h128h128h128v-128h-128v-128h-128v-128h-128h-128v128h128v128h-128h-128v128h-128z" />
<glyph unicode="&#xc8;" d="M0 0v128v128v128v128v128v128v128h128h128h128h128h128h128v-128h-128h-128h-128h-128v-128v-128h128h128h128h128v-128h-128h-128h-128h-128v-128v-128h128h128h128h128v-128h-128h-128h-128h-128h-128h-128zM128 1152v128h128h128v-128h128v-128h-128h-128v128h-128z " />
<glyph unicode="&#xc9;" d="M0 0v128v128v128v128v128v128v128h128h128h128h128h128h128v-128h-128h-128h-128h-128v-128v-128h128h128h128h128v-128h-128h-128h-128h-128v-128v-128h128h128h128h128v-128h-128h-128h-128h-128h-128h-128zM256 1024v128h128v128h128h128v-128h-128v-128h-128h-128z " />
<glyph unicode="&#xca;" d="M0 0v128v128v128v128v128v128v128h128h128h128h128h128h128v-128h-128h-128h-128h-128v-128v-128h128h128h128h128v-128h-128h-128h-128h-128v-128v-128h128h128h128h128v-128h-128h-128h-128h-128h-128h-128zM0 1024v128h128v128h128v128h128h128v-128h128v-128h128 v-128h-128h-128v128h-128h-128v-128h-128h-128z" />
<glyph unicode="&#xcb;" d="M0 0v128v128v128v128v128v128v128h128h128h128h128h128h128v-128h-128h-128h-128h-128v-128v-128h128h128h128h128v-128h-128h-128h-128h-128v-128v-128h128h128h128h128v-128h-128h-128h-128h-128h-128h-128zM0 1024v128v128h128h128v-128v-128h-128h-128zM512 1024v128 v128h128h128v-128v-128h-128h-128z" />
<glyph unicode="&#xcc;" horiz-adv-x="384" d="M-128 1152v128h128h128v-128h128v-128h-128h-128v128h-128zM0 0v128v128v128v128v128v128v128h128h128v-128v-128v-128v-128v-128v-128v-128h-128h-128z" />
<glyph unicode="&#xcd;" horiz-adv-x="512" d="M0 0v128v128v128v128v128v128v128h128h128v-128v-128v-128v-128v-128v-128v-128h-128h-128zM0 1024v128h128v128h128h128v-128h-128v-128h-128h-128z" />
<glyph unicode="&#xce;" horiz-adv-x="640" d="M-256 1024v128h128v128h128v128h128h128v-128h128v-128h128v-128h-128h-128v128h-128h-128v-128h-128h-128zM0 0v128v128v128v128v128v128v128h128h128v-128v-128v-128v-128v-128v-128v-128h-128h-128z" />
<glyph unicode="&#xcf;" horiz-adv-x="640" d="M-256 1024v128v128h128h128v-128v-128h-128h-128zM0 0v128v128v128v128v128v128v128h128h128v-128v-128v-128v-128v-128v-128v-128h-128h-128zM256 1024v128v128h128h128v-128v-128h-128h-128z" />
<glyph unicode="&#xd0;" horiz-adv-x="1152" d="M0 384v128h128v128v128v128h128h128h128h128h128h128v-128h128v-128v-128v-128v-128v-128h-128v-128h-128h-128h-128h-128h-128h-128v128v128v128h-128zM384 128h128h128h128v128v128v128v128v128h-128h-128h-128v-128v-128h128h128v-128h-128h-128v-128v-128z" />
<glyph unicode="&#xd1;" horiz-adv-x="1024" d="M0 0v128v128v128v128v128v128v128h128h128v-128h128v-128h128v-128h128v128v128v128h128h128v-128v-128v-128v-128v-128v-128v-128h-128h-128v128v128h-128v128h-128v128h-128v-128v-128v-128v-128h-128h-128zM128 1024v128v128h128v128h128h128v-128h128v128h128v-128 v-128h-128v-128h-128h-128v128h-128v-128h-128z" />
<glyph unicode="&#xd2;" horiz-adv-x="1024" d="M0 128v128v128v128v128v128h128v128h128h128h128h128h128v-128h128v-128v-128v-128v-128v-128h-128v-128h-128h-128h-128h-128h-128v128h-128zM256 128h128h128h128v128v128v128v128v128h-128h-128h-128v-128v-128v-128v-128v-128zM256 1152v128h128h128v-128h128v-128 h-128h-128v128h-128z" />
<glyph unicode="&#xd3;" horiz-adv-x="1024" d="M0 128v128v128v128v128v128h128v128h128h128h128h128h128v-128h128v-128v-128v-128v-128v-128h-128v-128h-128h-128h-128h-128h-128v128h-128zM256 128h128h128h128v128v128v128v128v128h-128h-128h-128v-128v-128v-128v-128v-128zM256 1024v128h128v128h128h128v-128 h-128v-128h-128h-128z" />
<glyph unicode="&#xd4;" horiz-adv-x="1024" d="M0 128v128v128v128v128v128h128v128h128h128h128h128h128v-128h128v-128v-128v-128v-128v-128h-128v-128h-128h-128h-128h-128h-128v128h-128zM128 1024v128h128v128h128v128h128v-128h128v-128h128v-128h-128h-128v128h-128v-128h-128h-128zM256 128h128h128h128v128 v128v128v128v128h-128h-128h-128v-128v-128v-128v-128v-128z" />
<glyph unicode="&#xd5;" horiz-adv-x="1024" d="M0 128v128v128v128v128v128h128v128h128h128h128h128h128v-128h128v-128v-128v-128v-128v-128h-128v-128h-128h-128h-128h-128h-128v128h-128zM128 1024v128v128h128v128h128h128v-128h128v128h128v-128v-128h-128v-128h-128h-128v128h-128v-128h-128zM256 128h128h128 h128v128v128v128v128v128h-128h-128h-128v-128v-128v-128v-128v-128z" />
<glyph unicode="&#xd6;" horiz-adv-x="1024" d="M0 128v128v128v128v128v128h128v128h128h128h128h128h128v-128h128v-128v-128v-128v-128v-128h-128v-128h-128h-128h-128h-128h-128v128h-128zM128 1024v128v128h128h128v-128v-128h-128h-128zM256 128h128h128h128v128v128v128v128v128h-128h-128h-128v-128v-128v-128 v-128v-128zM512 1024v128v128h128h128v-128v-128h-128h-128z" />
<glyph unicode="&#xd7;" d="M0 128v128h128v128h128v128h-128v128h-128v128h128h128v-128h128h128v128h128h128v-128h-128v-128h-128v-128h128v-128h128v-128h-128h-128v128h-128h-128v-128h-128h-128z" />
<glyph unicode="&#xd8;" horiz-adv-x="1280" d="M0 128v128h128v128v128v128v128h128v128h128h128h128h128h128v-128h128h128v-128h-128v-128v-128v-128v-128h-128v-128h-128h-128h-128h-128h-128v128h-128h-128zM384 128h128h128h128v128v128h-128h-128v-128h-128v-128zM384 512h128h128v128h128v128h-128h-128h-128 v-128v-128z" />
<glyph unicode="&#xd9;" horiz-adv-x="1024" d="M0 128v128v128v128v128v128v128h128h128v-128v-128v-128v-128v-128v-128h128h128h128v128v128v128v128v128v128h128h128v-128v-128v-128v-128v-128v-128v-128h-128h-128h-128h-128h-128h-128v128h-128zM256 1152v128h128h128v-128h128v-128h-128h-128v128h-128z" />
<glyph unicode="&#xda;" horiz-adv-x="1024" d="M0 128v128v128v128v128v128v128h128h128v-128v-128v-128v-128v-128v-128h128h128h128v128v128v128v128v128v128h128h128v-128v-128v-128v-128v-128v-128v-128h-128h-128h-128h-128h-128h-128v128h-128zM256 1024v128h128v128h128h128v-128h-128v-128h-128h-128z" />
<glyph unicode="&#xdb;" horiz-adv-x="1024" d="M0 128v128v128v128v128v128v128h128h128v-128v-128v-128v-128v-128v-128h128h128h128v128v128v128v128v128v128h128h128v-128v-128v-128v-128v-128v-128v-128h-128h-128h-128h-128h-128h-128v128h-128zM128 1024v128h128v128h128v128h128v-128h128v-128h128v-128h-128 h-128v128h-128v-128h-128h-128z" />
<glyph unicode="&#xdc;" horiz-adv-x="1024" d="M0 128v128v128v128v128v128v128h128h128v-128v-128v-128v-128v-128v-128h128h128h128v128v128v128v128v128v128h128h128v-128v-128v-128v-128v-128v-128v-128h-128h-128h-128h-128h-128h-128v128h-128zM128 1024v128v128h128h128v-128v-128h-128h-128zM512 1024v128v128 h128h128v-128v-128h-128h-128z" />
<glyph unicode="&#xdd;" horiz-adv-x="1152" d="M0 768v128h128h128v-128h128v-128h128h128v128h128v128h128h128v-128h-128v-128h-128v-128h-128v-128v-128v-128v-128h-128h-128v128v128v128v128h-128v128h-128v128h-128zM384 1024v128h128v128h128h128v-128h-128v-128h-128h-128z" />
<glyph unicode="&#xde;" d="M0 0v128v128v128v128v128v128v128h128h128v-128h128h128h128v-128h128v-128v-128v-128h-128v-128h-128h-128h-128v-128h-128h-128zM256 256h128h128v128v128v128h-128h-128v-128v-128v-128z" />
<glyph unicode="&#xdf;" horiz-adv-x="1024" d="M0 0v128v128v128v128v128v128h128v128h128h128h128h128v-128h128v-128v-128h128v-128v-128v-128h-128v-128h-128h-128h-128v128v128h128v-128h128v128v128v128h-128v128v128h-128h-128v-128v-128v-128v-128v-128v-128h-128h-128z" />
<glyph unicode="&#xe0;" d="M0 128v128v128v128h128v128h128h128h128h128h128v-128v-128v-128v-128v-128h-128h-128h-128h-128h-128v128h-128zM128 896v128h128h128v-128h128v-128h-128h-128v128h-128zM256 128h128h128v128v128v128h-128h-128v-128v-128v-128z" />
<glyph unicode="&#xe1;" d="M0 128v128v128v128h128v128h128h128h128h128h128v-128v-128v-128v-128v-128h-128h-128h-128h-128h-128v128h-128zM256 128h128h128v128v128v128h-128h-128v-128v-128v-128zM256 768v128h128v128h128h128v-128h-128v-128h-128h-128z" />
<glyph unicode="&#xe2;" d="M0 128v128v128v128h128v128h128h128h128h128h128v-128v-128v-128v-128v-128h-128h-128h-128h-128h-128v128h-128zM0 768v128h128v128h128v128h128h128v-128h128v-128h128v-128h-128h-128v128h-128h-128v-128h-128h-128zM256 128h128h128v128v128v128h-128h-128v-128v-128 v-128z" />
<glyph unicode="&#xe3;" d="M0 128v128v128v128h128v128h128h128h128h128h128v-128v-128v-128v-128v-128h-128h-128h-128h-128h-128v128h-128zM0 768v128v128h128v128h128h128v-128h128h128v128h128v-128v-128h-128v-128h-128h-128v128h-128h-128v-128h-128zM256 128h128h128v128v128v128h-128h-128 v-128v-128v-128z" />
<glyph unicode="&#xe4;" d="M0 128v128v128v128h128v128h128h128h128h128h128v-128v-128v-128v-128v-128h-128h-128h-128h-128h-128v128h-128zM0 768v128v128h128h128v-128v-128h-128h-128zM256 128h128h128v128v128v128h-128h-128v-128v-128v-128zM512 768v128v128h128h128v-128v-128h-128h-128z " />
<glyph unicode="&#xe5;" d="M0 128v128v128v128h128v128h128v128h-128v128h128v128h128h128h128v-128h128v-128h-128v-128h128v-128v-128v-128v-128v-128h-128h-128h-128h-128h-128v128h-128zM256 128h128h128v128v128v128h-128h-128v-128v-128v-128zM384 768h128v128h-128v-128z" />
<glyph unicode="&#xe6;" horiz-adv-x="1408" d="M0 128v128v128v128h128v128h128h128h128h128h128h128h128h128v-128h128v-128v-128h-128h-128h-128h-128v-128h128h128h128v-128h-128h-128h-128h-128h-128h-128h-128h-128v128h-128zM256 128h128h128v128v128v128h-128h-128v-128v-128v-128zM768 384h128h128v128h-128 h-128v-128z" />
<glyph unicode="&#xe7;" horiz-adv-x="768" d="M0 128v128v128v128h128v128h128h128h128h128v-128h-128h-128h-128v-128v-128v-128h128h128h128v-128h-128v-128h-128v-128h-128h-128v128h128v128h-128v128h-128z" />
<glyph unicode="&#xe8;" d="M0 128v128v128v128h128v128h128h128h128h128v-128h128v-128v-128h-128h-128h-128h-128v-128h128h128h128v-128h-128h-128h-128h-128v128h-128zM128 896v128h128h128v-128h128v-128h-128h-128v128h-128zM256 384h128h128v128h-128h-128v-128z" />
<glyph unicode="&#xe9;" d="M0 128v128v128v128h128v128h128h128h128h128v-128h128v-128v-128h-128h-128h-128h-128v-128h128h128h128v-128h-128h-128h-128h-128v128h-128zM256 384h128h128v128h-128h-128v-128zM256 768v128h128v128h128h128v-128h-128v-128h-128h-128z" />
<glyph unicode="&#xea;" d="M0 128v128v128v128h128v128h128h128h128h128v-128h128v-128v-128h-128h-128h-128h-128v-128h128h128h128v-128h-128h-128h-128h-128v128h-128zM0 768v128h128v128h128v128h128h128v-128h128v-128h128v-128h-128h-128v128h-128h-128v-128h-128h-128zM256 384h128h128v128 h-128h-128v-128z" />
<glyph unicode="&#xeb;" d="M0 128v128v128v128h128v128h128h128h128h128v-128h128v-128v-128h-128h-128h-128h-128v-128h128h128h128v-128h-128h-128h-128h-128v128h-128zM0 768v128v128h128h128v-128v-128h-128h-128zM256 384h128h128v128h-128h-128v-128zM512 768v128v128h128h128v-128v-128h-128 h-128z" />
<glyph unicode="&#xec;" horiz-adv-x="384" d="M-128 896v128h128h128v-128h128v-128h-128h-128v128h-128zM0 0v128v128v128v128v128h128h128v-128v-128v-128v-128v-128h-128h-128z" />
<glyph unicode="&#xed;" horiz-adv-x="512" d="M0 0v128v128v128v128v128h128h128v-128v-128v-128v-128v-128h-128h-128zM0 768v128h128v128h128h128v-128h-128v-128h-128h-128z" />
<glyph unicode="&#xee;" horiz-adv-x="512" d="M-128 768v128h128v128h128h128v-128h128v-128h-128h-128h-128h-128zM0 0v128v128v128v128v128h128h128v-128v-128v-128v-128v-128h-128h-128z" />
<glyph unicode="&#xef;" horiz-adv-x="640" d="M-256 768v128v128h128h128v-128v-128h-128h-128zM0 0v128v128v128v128v128h128h128v-128v-128v-128v-128v-128h-128h-128zM256 768v128v128h128h128v-128v-128h-128h-128z" />
<glyph unicode="&#xf0;" horiz-adv-x="1024" d="M0 128v128v128h128v128h128h128h128v128h-128h-128v128h128v128h128h128v-128h128h128v-128h-128v-128v-128v-128v-128h-128v-128h-128h-128h-128h-128v128h-128zM256 128h128h128v128v128h-128h-128v-128v-128z" />
<glyph unicode="&#xf1;" d="M0 0v128v128v128v128v128h128h128h128h128h128v-128h128v-128v-128v-128v-128h-128h-128v128v128v128v128h-128h-128v-128v-128v-128v-128h-128h-128zM0 768v128v128h128v128h128h128v-128h128h128v128h128v-128v-128h-128v-128h-128h-128v128h-128h-128v-128h-128z" />
<glyph unicode="&#xf2;" d="M0 128v128v128v128h128v128h128h128h128h128v-128h128v-128v-128v-128h-128v-128h-128h-128h-128h-128v128h-128zM128 896v128h128h128v-128h128v-128h-128h-128v128h-128zM256 128h128h128v128v128v128h-128h-128v-128v-128v-128z" />
<glyph unicode="&#xf3;" d="M0 128v128v128v128h128v128h128h128h128h128v-128h128v-128v-128v-128h-128v-128h-128h-128h-128h-128v128h-128zM256 128h128h128v128v128v128h-128h-128v-128v-128v-128zM256 768v128h128v128h128h128v-128h-128v-128h-128h-128z" />
<glyph unicode="&#xf4;" d="M0 128v128v128v128h128v128h128h128h128h128v-128h128v-128v-128v-128h-128v-128h-128h-128h-128h-128v128h-128zM0 768v128h128v128h128v128h128h128v-128h128v-128h128v-128h-128h-128v128h-128h-128v-128h-128h-128zM256 128h128h128v128v128v128h-128h-128v-128v-128 v-128z" />
<glyph unicode="&#xf5;" d="M0 128v128v128v128h128v128h128h128h128h128v-128h128v-128v-128v-128h-128v-128h-128h-128h-128h-128v128h-128zM0 768v128v128h128v128h128h128v-128h128h128v128h128v-128v-128h-128v-128h-128h-128v128h-128h-128v-128h-128zM256 128h128h128v128v128v128h-128h-128 v-128v-128v-128z" />
<glyph unicode="&#xf6;" d="M0 128v128v128v128h128v128h128h128h128h128v-128h128v-128v-128v-128h-128v-128h-128h-128h-128h-128v128h-128zM0 768v128v128h128h128v-128v-128h-128h-128zM256 128h128h128v128v128v128h-128h-128v-128v-128v-128zM512 768v128v128h128h128v-128v-128h-128h-128z " />
<glyph unicode="&#xf7;" d="M0 384v128h128h128h128h128h128h128v-128h-128h-128h-128h-128h-128h-128zM256 128v128h128h128v-128h-128h-128zM256 640v128h128h128v-128h-128h-128z" />
<glyph unicode="&#xf8;" horiz-adv-x="1152" d="M0 128v128h128v128v128h128v128h128h128h128h128v-128h128h128v-128h-128v-128v-128h-128v-128h-128h-128h-128h-128v128h-128h-128zM384 128h128h128v128h-128h-128v-128zM384 384h128h128v128h-128h-128v-128z" />
<glyph unicode="&#xf9;" d="M0 128v128v128v128v128h128h128v-128v-128v-128v-128h128h128v128v128v128v128h128h128v-128v-128v-128v-128v-128h-128h-128h-128h-128h-128v128h-128zM128 896v128h128h128v-128h128v-128h-128h-128v128h-128z" />
<glyph unicode="&#xfa;" d="M0 128v128v128v128v128h128h128v-128v-128v-128v-128h128h128v128v128v128v128h128h128v-128v-128v-128v-128v-128h-128h-128h-128h-128h-128v128h-128zM256 768v128h128v128h128h128v-128h-128v-128h-128h-128z" />
<glyph unicode="&#xfb;" d="M0 128v128v128v128v128h128h128v-128v-128v-128v-128h128h128v128v128v128v128h128h128v-128v-128v-128v-128v-128h-128h-128h-128h-128h-128v128h-128zM0 768v128h128v128h128v128h128h128v-128h128v-128h128v-128h-128h-128v128h-128h-128v-128h-128h-128z" />
<glyph unicode="&#xfc;" d="M0 128v128v128v128v128h128h128v-128v-128v-128v-128h128h128v128v128v128v128h128h128v-128v-128v-128v-128v-128h-128h-128h-128h-128h-128v128h-128zM0 768v128v128h128h128v-128v-128h-128h-128zM512 768v128v128h128h128v-128v-128h-128h-128z" />
<glyph unicode="&#xfd;" d="M0 128v128v128v128v128h128h128v-128v-128v-128v-128h128h128v128v128v128v128h128h128v-128v-128v-128v-128v-128v-128h-128v-128h-128h-128h-128h-128v128h128h128h128v128h-128h-128h-128v128h-128zM256 768v128h128v128h128h128v-128h-128v-128h-128h-128z" />
<glyph unicode="&#xfe;" d="M0 0v128v128v128v128v128v128v128v128h128v-128h128h128h128h128v-128h128v-128v-128v-128v-128v-128h-128v-128h-128h-128h-128h-128v-128h-128v128zM256 128h128h128v128v128v128v128v128h-128h-128v-128v-128v-128v-128v-128z" />
<glyph unicode="&#xff;" d="M0 128v128v128v128v128h128h128v-128v-128v-128v-128h128h128v128v128v128v128h128h128v-128v-128v-128v-128v-128v-128h-128v-128h-128h-128h-128h-128v128h128h128h128v128h-128h-128h-128v128h-128zM0 768v128v128h128h128v-128v-128h-128h-128zM512 768v128v128h128 h128v-128v-128h-128h-128z" />
<glyph unicode="&#x152;" horiz-adv-x="1536" d="M0 128v128v128v128v128v128h128v128h128h128h128h128h128h128h128h128h128h128v-128h-128h-128h-128h-128v-128v-128h128h128h128h128v-128h-128h-128h-128h-128v-128v-128h128h128h128h128v-128h-128h-128h-128h-128h-128h-128h-128h-128h-128h-128v128h-128zM256 128 h128h128h128v128v128v128v128v128h-128h-128h-128v-128v-128v-128v-128v-128z" />
<glyph unicode="&#x153;" horiz-adv-x="1408" d="M0 128v128v128v128h128v128h128h128h128h128h128h128h128h128v-128h128v-128v-128h-128h-128h-128h-128v-128h128h128h128v-128h-128h-128h-128h-128h-128h-128h-128h-128v128h-128zM256 128h128h128v128v128v128h-128h-128v-128v-128v-128zM768 384h128h128v128h-128 h-128v-128z" />
<glyph unicode="&#x178;" horiz-adv-x="1152" d="M0 768v128h128h128v-128h128v-128h128h128v128h128v128h128h128v-128h-128v-128h-128v-128h-128v-128v-128v-128v-128h-128h-128v128v128v128v128h-128v128h-128v128h-128zM128 1024v128v128h128h128v-128v-128h-128h-128zM640 1024v128v128h128h128v-128v-128h-128h-128 z" />
<glyph unicode="&#x2000;" horiz-adv-x="704" />
<glyph unicode="&#x2001;" horiz-adv-x="1408" />
<glyph unicode="&#x2002;" horiz-adv-x="704" />
<glyph unicode="&#x2003;" horiz-adv-x="1408" />
<glyph unicode="&#x2004;" horiz-adv-x="469" />
<glyph unicode="&#x2005;" horiz-adv-x="352" />
<glyph unicode="&#x2006;" horiz-adv-x="234" />
<glyph unicode="&#x2007;" horiz-adv-x="234" />
<glyph unicode="&#x2008;" horiz-adv-x="176" />
<glyph unicode="&#x2009;" horiz-adv-x="281" />
<glyph unicode="&#x200a;" horiz-adv-x="78" />
<glyph unicode="&#x2010;" d="M0 384v128h128h128h128h128h128h128v-128h-128h-128h-128h-128h-128h-128z" />
<glyph unicode="&#x2011;" d="M0 384v128h128h128h128h128h128h128v-128h-128h-128h-128h-128h-128h-128z" />
<glyph unicode="&#x2012;" d="M0 384v128h128h128h128h128h128h128v-128h-128h-128h-128h-128h-128h-128z" />
<glyph unicode="&#x2013;" horiz-adv-x="1152" d="M0 384v128h171h170h171h171h170h171v-128h-171h-170h-171h-171h-170h-171z" />
<glyph unicode="&#x2014;" horiz-adv-x="2176" d="M0 384v128h341h342h341h341h342h341v-128h-341h-342h-341h-341h-342h-341z" />
<glyph unicode="&#x2018;" horiz-adv-x="384" d="M0 768v128v128h128h128v-128v-128h-128h-128z" />
<glyph unicode="&#x2019;" horiz-adv-x="384" d="M0 768v128v128h128h128v-128v-128h-128h-128z" />
<glyph unicode="&#x201c;" horiz-adv-x="768" d="M0 768v128v128h128h128v-128v-128h-128h-128zM384 768v128v128h128h128v-128v-128h-128h-128z" />
<glyph unicode="&#x201d;" horiz-adv-x="768" d="M0 768v128v128h128h128v-128v-128h-128h-128zM384 768v128v128h128h128v-128v-128h-128h-128z" />
<glyph unicode="&#x2022;" horiz-adv-x="512" d="M0 256v128v128v128h128h128h128v-128v-128v-128h-128h-128h-128z" />
<glyph unicode="&#x2026;" horiz-adv-x="1152" d="M0 0v128v128h128h128v-128v-128h-128h-128zM384 0v128v128h128h128v-128v-128h-128h-128zM768 0v128v128h128h128v-128v-128h-128h-128z" />
<glyph unicode="&#x202f;" horiz-adv-x="281" />
<glyph unicode="&#x205f;" horiz-adv-x="352" />
<glyph unicode="&#x20ac;" horiz-adv-x="1024" d="M0 256v128h128v128h-128v128h128v128h128v128h128h128h128h128h128v-128h-128h-128h-128h-128v-128h128h128v-128h-128h-128v-128h128h128v-128h-128h-128v-128h128h128h128h128v-128h-128h-128h-128h-128h-128v128h-128v128h-128z" />
<glyph unicode="&#x2122;" horiz-adv-x="1280" d="M0 768v128h128h128h128h128h128h128v-128h128v128h128h128v-128v-128v-128v-128h-128h-128v128v128h-128v-128v-128h-128h-128v128v128v128h-128v-128v-128v-128h-128h-128v128v128v128h-128z" />
<glyph unicode="&#x25fc;" horiz-adv-x="640" d="M0 0v640h640v-640h-640z" />
</font>
</defs>
</svg>
